# xmcd CD database file
# Copyright (C) 1995-1998 Ti Kan
#
# Track frame offsets:
#	150
#	17782
#	35060
#	62342
#	89990
#	110030
#	133407
#	156340
#	174217
#	199365
#
# Disc length: 3138 seconds
#
# Revision: 34516140
# Submitted via:  CDSpectrumPro v3.3.331
#
DISCID=940c400a
DTITLE=Various / Class Acts Dance Mix
TTITLE0=Paula Abdul / Ain't Never Gonna Give You Up
TTITLE1=Z-Unlimited / Do What's Good For Me
TTITLE2=N-Trance / Stayin' Alive
TTITLE3=Moné / Movin'
TTITLE4=Planet Soul / Feel The Music
TTITLE5=Frankie Knuckles / Walkin'
TTITLE6=Los Del Mar / Macarena
TTITLE7=Ruffneck / Everybody Be Somebody
TTITLE8=Joi Cardwell / You Got To Pray
TTITLE9=Keoki / Caterpillar
EXTD=\nYEAR: 2000  ID3G:  17
EXTT0=
EXTT1=
EXTT2=
EXTT3=Jazz-N-Groove Main Vocal Mix
EXTT4=Featuring Brenda Dee
EXTT5=Featuring Adeva and Ricky Dillard's New Generation Chorale
EXTT6=Mix '96
EXTT7=Fearturing "Yavahn"
EXTT8=Gomi's Lair Club Dub Vocal
EXTT9=Original mix
PLAYORDER=
